HIERARCHY
ROOT Hips
{
	OFFSET 0.00000 0.00000 0.00000
	CHANNELS 6 Xposition Yposition Zposition Zrotation Yrotation Xrotation 
	JOINT LHipJoint
	{
		OFFSET 0 0 0
		CHANNELS 3 Zrotation Yrotation Xrotation
		JOINT LeftUpLeg
		{
			OFFSET 1.44361 -1.63093 0.70831
			CHANNELS 3 Zrotation Yrotation Xrotation
			JOINT LeftLeg
			{
				OFFSET 2.20103 -6.04728 0.00000
				CHANNELS 3 Zrotation Yrotation Xrotation
				JOINT LeftFoot
				{
					OFFSET 2.54154 -6.98283 0.00000
					CHANNELS 3 Zrotation Yrotation Xrotation
					JOINT LeftToeBase
					{
						OFFSET 0.05971 -0.16406 1.77582
						CHANNELS 3 Zrotation Yrotation Xrotation
						End Site
						{
							OFFSET 0.00000 -0.00000 0.90832
						}
					}
				}
			}
		}
	}
	JOINT RHipJoint
	{
		OFFSET 0 0 0
		CHANNELS 3 Zrotation Yrotation Xrotation
		JOINT RightUpLeg
		{
			OFFSET -1.65838 -1.63093 0.70830
			CHANNELS 3 Zrotation Yrotation Xrotation
			JOINT RightLeg
			{
				OFFSET -2.26926 -6.23475 0.00000
				CHANNELS 3 Zrotation Yrotation Xrotation
				JOINT RightFoot
				{
					OFFSET -2.34808 -6.45129 0.00000
					CHANNELS 3 Zrotation Yrotation Xrotation
					JOINT RightToeBase
					{
						OFFSET -0.18633 -0.51195 1.68539
						CHANNELS 3 Zrotation Yrotation Xrotation
						End Site
						{
							OFFSET -0.00000 -0.00000 0.88927
						}
					}
				}
			}
		}
	}
	JOINT LowerBack
	{
		OFFSET 0 0 0
		CHANNELS 3 Zrotation Yrotation Xrotation
		JOINT Spine
		{
			OFFSET -0.10393 2.01691 0.06920
			CHANNELS 3 Zrotation Yrotation Xrotation
			JOINT Spine1
			{
				OFFSET 0.04092 2.01302 -0.05283
				CHANNELS 3 Zrotation Yrotation Xrotation
				JOINT Neck
				{
					OFFSET 0 0 0
					CHANNELS 3 Zrotation Yrotation Xrotation
					JOINT Neck1
					{
						OFFSET -0.02870 1.58978 -0.03113
						CHANNELS 3 Zrotation Yrotation Xrotation
						JOINT Head
						{
							OFFSET 0.11532 1.54326 -0.29195
							CHANNELS 3 Zrotation Yrotation Xrotation
							End Site
							{
								OFFSET 0.04056 1.59999 -0.09535
							}
						}
					}
				}
				JOINT LeftShoulder
				{
					OFFSET 0 0 0
					CHANNELS 3 Zrotation Yrotation Xrotation
					JOINT LeftArm
					{
						OFFSET 3.30641 1.15764 0.01104
						CHANNELS 3 Zrotation Yrotation Xrotation
						JOINT LeftForeArm
						{
							OFFSET 4.63208 -0.00000 0.00000
							CHANNELS 3 Zrotation Yrotation Xrotation
							JOINT LeftHand
							{
								OFFSET 3.41924 -0.00000 -0.00000
								CHANNELS 3 Zrotation Yrotation Xrotation
								JOINT LeftFingerBase
								{
									OFFSET 0 0 0
									CHANNELS 3 Zrotation Yrotation Xrotation
									JOINT LeftHandIndex1
									{
										OFFSET 0.62537 -0.00000 -0.00000
										CHANNELS 3 Zrotation Yrotation Xrotation
										End Site
										{
											OFFSET 0.50419 -0.00000 -0.00000
										}
									}
								}
								JOINT LThumb
								{
									OFFSET 0 0 0
									CHANNELS 3 Zrotation Yrotation Xrotation
									End Site
									{
										OFFSET 0.51189 -0.00000 0.51189
									}
								}
							}
						}
					}
				}
				JOINT RightShoulder
				{
					OFFSET 0 0 0
					CHANNELS 3 Zrotation Yrotation Xrotation
					JOINT RightArm
					{
						OFFSET -3.78081 1.02180 -0.16609
						CHANNELS 3 Zrotation Yrotation Xrotation
						JOINT RightForeArm
						{
							OFFSET -4.40640 -0.00000 -0.00000
							CHANNELS 3 Zrotation Yrotation Xrotation
							JOINT RightHand
							{
								OFFSET -3.44675 -0.00000 0.00000
								CHANNELS 3 Zrotation Yrotation Xrotation
								JOINT RightFingerBase
								{
									OFFSET 0 0 0
									CHANNELS 3 Zrotation Yrotation Xrotation
									JOINT RightHandIndex1
									{
										OFFSET -0.51367 -0.00000 -0.00000
										CHANNELS 3 Zrotation Yrotation Xrotation
										End Site
										{
											OFFSET -0.41414 -0.00000 -0.00000
										}
									}
								}
								JOINT RThumb
								{
									OFFSET 0 0 0
									CHANNELS 3 Zrotation Yrotation Xrotation
									End Site
									{
										OFFSET -0.42046 -0.00000 0.42046
									}
								}
							}
						}
					}
				}
			}
		}
	}
}
MOTION
Frames: 15
Frame Time: .0083333
9.1113 16.683 23.2402 0 0 0 0 0 0 -21 0 0 0 0 0 0 0 0 0 0 0 0 0 0 21 0 0 0 0 0 0 0 0 0 0 0 0 0 0 0 0 0 0 0 0 0 0 -16 0 0 21 0 0 11 0 0 0 -8 0 0 0 0 0 0 0 0 0 0 0 0 0 0 0 0 0 0 0 0 8 0 0 0 0 0 0 0 0 0 0 0 0 0 0 0 0 0
9.1113 16.6830 23.2402 -178.9810 4.3665 -166.8190 0.0000 0.0000 0.0000 -17.6051 -12.2430 -8.9747 0.1992 2.8740 7.9282 0.4508 -2.6048 -12.0545 8.0202 -16.1341 -52.6354 0.0000 0.0000 0.0000 21.2058 4.6708 -10.2618 -0.2116 -2.9618 8.1725 -0.0947 -0.4816 -6.0083 -0.0731 1.7446 -4.8004 -8.2531 1.2977 -9.2926 3.3188 2.5239 1.5437 8.6020 0.8809 6.3767 -2.2834 0.1781 -7.6114 0.9995 -3.2309 32.1944 0.1337 -2.8032 11.8145 -0.0000 -0.0000 0.0000 -93.8140 -0.0625 14.2547 9.3760 -15.7577 -1.3004 -0.0000 -0.0000 24.4043 33.1280 -19.6118 -12.3549 -7.1250 0.0000 -0.0000 3.0391 6.9583 -2.6524 -0.0000 -0.0000 0.0000 89.3205 -9.5898 -3.0289 -18.4681 28.7524 -4.7723 0.0000 0.0000 11.5112 -20.2831 -34.5629 11.8413 7.1250 -0.0000 -0.0000 16.6151 -65.5540 -8.3534
9.1197 16.6800 23.2337 -179.0000 4.2623 -166.9350 0.0000 0.0000 0.0000 -17.6257 -12.2301 -8.8659 0.2043 2.9107 8.0302 0.4550 -2.4851 -12.1281 8.3178 -16.3481 -53.6996 0.0000 0.0000 0.0000 21.2479 4.7470 -10.0305 -0.2104 -2.9535 8.1495 -0.1066 -0.5245 -6.3794 -0.1082 2.1213 -5.8411 -7.8969 1.4172 -9.1484 3.0506 2.6407 1.5452 8.1072 0.9593 6.2956 -2.7920 0.3195 -6.3280 2.9454 -3.0315 29.8400 1.0183 -2.4330 10.6663 -0.0000 -0.0000 0.0000 -93.1582 0.1095 14.3296 9.2857 -15.6145 -1.2759 -0.0000 -0.0000 24.6364 32.9456 -19.0747 -11.9578 -7.1250 0.0000 -0.0000 3.0056 7.6112 -2.5847 -0.0000 -0.0000 0.0000 89.8302 -9.5861 -4.1293 -17.9530 28.0970 -4.5271 0.0000 0.0000 12.0792 -20.3546 -35.0866 12.0382 7.1250 -0.0000 -0.0000 17.0502 -66.0704 -8.7802
9.1264 16.6772 23.2238 -179.0140 4.0412 -166.9180 0.0000 0.0000 0.0000 -17.6161 -12.2817 -8.9014 0.2106 2.9544 8.1517 0.4550 -2.5473 -12.1204 8.4851 -16.4647 -54.2917 0.0000 0.0000 0.0000 21.2890 4.7294 -9.9179 -0.2055 -2.9189 8.0530 -0.1190 -0.5380 -6.7349 -0.1251 2.2799 -6.2800 -7.4926 1.4690 -9.1593 2.7833 2.6738 1.5079 7.5852 0.9957 6.2820 -0.3302 1.0430 -8.6463 1.0598 -1.9159 31.4988 -0.0059 -1.8440 11.7094 -0.0000 -0.0000 0.0000 -92.5315 0.2278 14.0224 9.1657 -15.4242 -1.2438 -0.0000 -0.0000 25.3142 32.5813 -18.1882 -11.2811 -7.1250 0.0000 -0.0000 2.9037 8.7004 -2.4343 -0.0000 -0.0000 0.0000 90.4198 -9.6207 -5.3914 -17.4660 27.4680 -4.3001 0.0000 0.0000 12.6906 -21.1580 -34.0582 12.2298 7.1250 -0.0000 -0.0000 15.1012 -65.3188 -7.4938
9.1312 16.6753 23.2119 -179.0760 3.9125 -166.9370 0.0000 0.0000 0.0000 -17.6960 -12.3166 -8.8364 0.2109 2.9565 8.1577 0.4540 -2.5952 -12.0992 8.5539 -16.5119 -54.5340 0.0000 0.0000 0.0000 21.2472 4.6255 -9.8361 -0.2032 -2.9026 8.0078 -0.1539 -0.4255 -7.5775 -0.3118 3.5895 -9.9245 -6.9525 1.5163 -9.1226 2.3918 2.6878 1.4714 6.8488 1.0296 6.2572 0.3002 1.3115 -9.3948 1.2690 -1.7939 32.1357 -0.0380 -1.6945 12.1223 -0.0000 0.0000 0.0000 -91.7506 0.3072 13.4566 9.0095 -15.1756 -1.2026 -0.0000 -0.0000 26.1630 32.3467 -17.6636 -10.8777 -7.1250 0.0000 -0.0000 2.8272 9.3471 -2.3334 -0.0000 0.0000 0.0000 91.1436 -9.5884 -6.6201 -16.9665 26.8136 -4.0722 0.0000 0.0000 13.3222 -21.8203 -32.9152 12.2744 7.1250 -0.0000 -0.0000 13.3207 -64.3947 -6.3095
9.1351 16.6727 23.1999 -179.0970 3.8984 -167.0080 0.0000 0.0000 0.0000 -17.7547 -12.2960 -8.6952 0.2099 2.9494 8.1380 0.4579 -2.5664 -12.1564 8.5498 -16.5091 -54.5197 0.0000 0.0000 0.0000 21.2435 4.5180 -9.7582 -0.2034 -2.9042 8.0121 -0.2173 0.8173 -8.5528 -0.5908 4.9211 -13.6836 -6.4490 1.5128 -9.0164 2.0864 2.6321 1.4573 6.2189 1.0265 6.2234 -0.2102 1.3548 -9.5384 2.4798 -2.1048 32.4177 0.4609 -1.7690 12.2901 0.0000 0.0000 0.0000 -91.1525 0.3798 12.6548 8.8290 -14.8875 -1.1558 -0.0000 -0.0000 26.7166 32.3782 -17.7871 -10.9625 -7.1250 0.0000 -0.0000 2.8302 9.1998 -2.3443 0.0000 0.0000 0.0000 91.6149 -9.5390 -7.4120 -16.5645 26.2801 -3.8925 0.0000 0.0000 14.1319 -20.1353 -33.2974 11.3806 7.1250 -0.0000 -0.0000 15.6208 -64.3045 -7.3901
9.1382 16.6692 23.1859 -179.0410 3.9031 -167.0600 0.0000 0.0000 0.0000 -17.7391 -12.2596 -8.5150 0.2070 2.9291 8.0814 0.4644 -2.4971 -12.2556 8.5092 -16.4813 -54.3766 0.0000 0.0000 0.0000 21.3363 4.4349 -9.6468 -0.1999 -2.8791 7.9422 -0.3364 2.7645 -10.3508 -1.2531 7.0968 -20.0025 -5.4105 1.5920 -8.8684 1.4542 2.6431 1.4044 4.9463 1.0829 6.1498 -0.9311 1.3955 -9.8540 4.3730 -2.7302 33.0291 1.2158 -1.9508 12.6636 0.0000 0.0000 0.0000 -89.9904 0.5161 12.3220 8.6916 -14.6675 -1.1207 -0.0000 -0.0000 26.6220 32.4000 -17.7538 -10.9521 -7.1250 0.0000 -0.0000 2.8489 9.2334 -2.3579 0.0000 0.0000 0.0000 92.7075 -9.6254 -8.0908 -16.3929 26.0505 -3.8169 0.0000 0.0000 15.0331 -21.2294 -33.5600 12.1200 7.1250 -0.0000 -0.0000 14.5688 -64.8583 -7.0692
9.1405 16.6679 23.1740 -179.0170 3.9016 -167.1180 0.0000 0.0000 0.0000 -17.7596 -12.2396 -8.3445 0.2048 2.9137 8.0387 0.4693 -2.5197 -12.3184 8.4216 -16.4208 -54.0676 0.0000 0.0000 0.0000 21.3946 4.3513 -9.5290 -0.1974 -2.8608 7.8915 -0.3364 2.8222 -10.3471 -1.2697 7.1419 -20.1363 -5.3811 1.5654 -8.8982 1.5354 2.6025 1.4484 5.0135 1.0593 6.2162 -2.2519 1.3429 -10.1693 5.8001 -3.2264 33.7195 1.9311 -2.2082 13.0831 -0.0000 0.0000 0.0000 -90.0591 0.5156 11.3697 8.5436 -14.4301 -1.0836 -0.0000 -0.0000 27.2858 32.8596 -17.5058 -10.9954 -7.1250 0.0000 -0.0000 3.1804 9.4248 -2.6208 -0.0000 0.0000 0.0000 92.5533 -9.7691 -8.0842 -16.1730 25.7547 -3.7208 0.0000 0.0000 14.3296 -22.5929 -33.3357 12.8805 7.1250 -0.0000 -0.0000 12.7497 -65.0200 -6.2198
9.1425 16.6688 23.1652 -179.1070 3.8476 -167.1370 0.0000 0.0000 0.0000 -17.8909 -12.3098 -8.2984 0.2077 2.9340 8.0949 0.4700 -2.5485 -12.3243 8.4006 -16.4061 -53.9929 0.0000 0.0000 0.0000 21.3111 4.2468 -9.5054 -0.1981 -2.8658 7.9053 -0.3384 2.8675 -10.3741 -1.2676 7.1362 -20.1195 -5.4204 1.5492 -8.8979 1.5345 2.5850 1.4399 5.0322 1.0497 6.2076 -2.2595 1.3189 -10.0956 5.6839 -3.2488 33.7796 1.8833 -2.2413 13.0919 0.0000 0.0000 0.0000 -89.9826 0.6103 10.7511 8.4499 -14.2795 -1.0603 -0.0000 -0.0000 27.7596 33.7109 -15.8882 -10.3511 -7.1250 0.0000 -0.0000 3.9623 11.1254 -3.1310 0.0000 0.0000 0.0000 92.4804 -9.8764 -8.5969 -16.0008 25.5217 -3.6463 0.0000 0.0000 14.9137 -20.9184 -33.1763 11.8139 7.1250 -0.0000 -0.0000 14.6019 -64.4015 -6.9307
9.1461 16.6695 23.1560 -179.2310 3.7841 -167.1130 0.0000 0.0000 0.0000 -18.0429 -12.4630 -8.2939 0.2120 2.9641 8.1788 0.4701 -2.4891 -12.3345 8.4139 -16.4154 -54.0403 0.0000 0.0000 0.0000 21.1810 4.1877 -9.5060 -0.1975 -2.8615 7.8933 -0.3382 2.8193 -10.3748 -1.2479 7.0827 -19.9608 -5.4942 1.5460 -8.9180 1.4937 2.5914 1.3799 5.0306 1.0544 6.1535 -2.2286 1.2961 -10.0654 5.6542 -3.3067 33.8430 1.8576 -2.2732 13.1154 -0.0000 -0.0000 0.0000 -89.8262 0.7478 10.4922 8.4114 -14.2175 -1.0509 -0.0000 -0.0000 27.9100 34.0275 -14.0126 -9.2852 -7.1250 0.0000 -0.0000 4.4290 13.2583 -3.3053 -0.0000 -0.0000 0.0000 92.5258 -9.9684 -9.3474 -15.8636 25.3353 -3.5874 0.0000 0.0000 15.8361 -19.4710 -33.0521 10.9141 7.1250 -0.0000 -0.0000 16.1747 -63.8896 -7.5024
9.1501 16.6695 23.1476 -179.2410 3.7406 -167.0660 0.0000 0.0000 0.0000 -18.0479 -12.6217 -8.3006 0.2160 2.9923 8.2573 0.4758 -2.4740 -12.4139 8.3204 -16.3499 -53.7087 0.0000 0.0000 0.0000 21.1796 4.1232 -9.5387 -0.1968 -2.8567 7.8802 -0.3385 2.8048 -10.3809 -1.2455 7.0762 -19.9414 -5.4753 1.5495 -8.9870 1.4868 2.5978 1.3376 5.0153 1.0597 6.1481 -2.1619 1.2964 -10.0930 5.6997 -3.3560 33.8956 1.8564 -2.2841 13.1478 0.0000 0.0000 0.0000 -89.6826 0.7710 10.2065 8.3668 -14.1457 -1.0399 -0.0000 -0.0000 28.0467 33.7929 -14.7018 -9.6398 -7.1250 0.0000 -0.0000 4.1801 12.4929 -3.1856 0.0000 0.0000 0.0000 92.6049 -10.0259 -9.8724 -15.7830 25.2256 -3.5530 0.0000 0.0000 16.2185 -18.8986 -33.0602 10.5786 7.1250 -0.0000 -0.0000 16.8370 -63.7439 -7.7609
9.1522 16.6702 23.1411 -179.1870 3.7022 -166.9820 0.0000 0.0000 0.0000 -17.9785 -12.7071 -8.3590 0.2177 3.0038 8.2894 0.4783 -2.4453 -12.4515 8.2893 -16.3279 -53.5980 0.0000 0.0000 0.0000 21.2456 4.0270 -9.6597 -0.1988 -2.8713 7.9207 -0.3392 2.8743 -10.3871 -1.2670 7.1346 -20.1149 -5.3867 1.5321 -9.0996 1.5112 2.5697 1.3112 4.9919 1.0479 6.1900 -1.9348 1.2397 -10.4173 5.3987 -3.4451 34.1923 1.6844 -2.3323 13.3453 0.0000 0.0000 0.0000 -89.6093 0.7158 9.7612 8.2992 -14.0367 -1.0235 -0.0000 -0.0000 28.2842 33.8294 -16.0898 -10.5221 -7.1250 0.0000 -0.0000 4.0112 10.8680 -3.1910 0.0000 0.0000 0.0000 92.6225 -10.0510 -10.1053 -15.7344 25.1591 -3.5323 0.0000 0.0000 16.2450 -18.7532 -33.1877 10.5281 7.1250 -0.0000 -0.0000 17.1154 -63.8264 -7.9259
9.1552 16.6726 23.1371 -179.1750 3.7203 -166.9480 0.0000 0.0000 0.0000 -17.9575 -12.6981 -8.3724 0.2160 2.9921 8.2568 0.4752 -2.3448 -12.4251 8.3522 -16.3723 -53.8217 0.0000 0.0000 0.0000 21.2724 4.0669 -9.6977 -0.2013 -2.8889 7.9697 -0.3407 2.8672 -10.4098 -1.2867 7.1878 -20.2730 -5.3855 1.5032 -9.1166 1.5485 2.5296 1.2611 5.0249 1.0307 6.1498 -1.5615 1.0617 -11.2062 4.5605 -3.7221 35.1280 1.2352 -2.5294 13.9288 -0.0000 0.0000 0.0000 -89.5905 0.7764 9.4887 8.2893 -14.0207 -1.0211 -0.0000 -0.0000 28.3658 34.1360 -16.4744 -10.8830 -7.1250 0.0000 -0.0000 4.1553 10.3596 -3.3494 -0.0000 0.0000 0.0000 92.5808 -10.1315 -10.0933 -15.6846 25.0912 -3.5112 0.0000 0.0000 15.9923 -19.2750 -33.1341 10.8215 7.1250 -0.0000 -0.0000 16.4711 -63.9153 -7.6534
9.1600 16.6750 23.1354 -179.1640 3.7844 -166.9780 0.0000 0.0000 0.0000 -17.9276 -12.6579 -8.3498 0.2168 2.9974 8.2714 0.4750 -2.2338 -12.4406 8.4242 -16.4226 -54.0767 0.0000 0.0000 0.0000 21.3084 4.1919 -9.6130 -0.2011 -2.8877 7.9664 -0.3421 2.8115 -10.4376 -1.3053 7.2376 -20.4213 -5.4439 1.4837 -9.0510 1.6009 2.5034 1.2190 5.1058 1.0193 6.0666 -4.6753 0.4448 -6.5563 7.9352 -4.4547 30.7361 3.0005 -2.8605 11.2552 -0.0000 -0.0000 0.0000 -89.5833 0.8657 9.4192 8.3315 -14.0888 -1.0313 -0.0000 -0.0000 28.3065 33.8618 -16.2741 -10.6494 -7.1250 0.0000 -0.0000 4.0060 10.6473 -3.2049 -0.0000 -0.0000 0.0000 92.5066 -10.1957 -9.9480 -15.6477 25.0407 -3.4955 0.0000 0.0000 15.5909 -19.8692 -33.0699 11.1553 7.1250 -0.0000 -0.0000 15.7312 -64.0139 -7.3371
9.1645 16.6746 23.1337 -179.1510 3.8475 -166.9660 0.0000 0.0000 0.0000 -17.8850 -12.6409 -8.4000 0.2212 3.0273 8.3549 0.4783 -2.1434 -12.5015 8.4820 -16.4625 -54.2807 0.0000 0.0000 0.0000 21.3360 4.2834 -9.5843 -0.2001 -2.8804 7.9459 -0.3416 2.7920 -10.4309 -1.2766 7.1605 -20.1917 -5.4758 1.4816 -9.0539 1.6240 2.5031 1.1911 5.1477 1.0197 6.0364 -4.3837 0.5269 -7.0030 7.6326 -4.3280 31.1080 2.8526 -2.7953 11.4719 0.0000 -0.0000 0.0000 -89.5427 0.8385 9.4344 8.3678 -14.1473 -1.0402 -0.0000 -0.0000 28.1577 33.3194 -15.7397 -10.1108 -7.1250 0.0000 -0.0000 3.7264 11.3723 -2.9248 0.0000 -0.0000 0.0000 92.4756 -10.1909 -9.8961 -15.6890 25.0971 -3.5130 0.0000 0.0000 15.5174 -19.5852 -33.2293 11.0326 7.1250 -0.0000 -0.0000 16.1977 -64.0898 -7.5890
